<?xml version="1.0" standalone="no"?>
<!DOCTYPE svg PUBLIC "-//W3C//DTD SVG 20010904//EN"
 "http://www.w3.org/TR/2001/REC-SVG-20010904/DTD/svg10.dtd">
<svg version="1.0" xmlns="http://www.w3.org/2000/svg"
 width="511.000000pt" height="511.000000pt" viewBox="0 0 511.000000 511.000000"
 preserveAspectRatio="xMidYMid meet">
<metadata>
Created by potrace 1.11, written by Peter Selinger 2001-2013
</metadata>
<g transform="translate(0.000000,511.000000) scale(0.100000,-0.100000)"
fill="#000000" stroke="none">
<path d="M2299 4627 c0 -12 -1 -84 -1 -159 l0 -138 -31 -1 c-18 0 -39 -2 -48
-4 -10 -1 -48 -6 -85 -9 -38 -3 -82 -8 -99 -11 -16 -3 -39 -7 -50 -9 -11 -2
-38 -7 -60 -11 -22 -4 -47 -9 -55 -10 -64 -12 -304 -87 -367 -116 -24 -10 -45
-19 -49 -19 -13 0 -245 -120 -309 -161 -69 -43 -165 -108 -175 -119 -3 -3 -32
-25 -65 -49 -78 -57 -303 -283 -385 -386 -207 -260 -379 -610 -446 -907 -4
-19 -8 -35 -18 -78 -8 -33 -15 -77 -22 -125 -3 -22 -7 -45 -9 -52 -17 -53 -25
-397 -11 -508 60 -489 366 -919 812 -1143 85 -43 269 -108 332 -118 20 -3 39
-7 42 -9 17 -10 166 -20 295 -19 127 1 164 5 245 27 289 78 524 272 656 540
23 48 43 89 42 90 0 1 9 33 21 71 12 38 24 94 28 125 3 31 7 63 9 71 1 8 3 34
3 58 l1 42 48 -24 c51 -25 178 -73 215 -80 12 -2 42 -9 67 -15 116 -26 252
-33 326 -16 137 31 247 153 261 288 l5 52 177 3 c437 7 774 23 1011 48 30 3
69 7 85 9 233 24 362 64 397 123 14 23 16 49 13 154 -28 928 -535 1776 -1345
2250 -303 178 -684 307 -1010 343 -30 4 -67 8 -82 11 -15 2 -103 6 -197 9
l-171 5 -1 -23z m451 -207 c96 -14 132 -20 139 -25 4 -2 25 -6 49 -10 54 -8
243 -64 352 -105 106 -39 328 -147 398 -195 30 -19 55 -35 57 -35 9 0 104 -68
198 -141 112 -88 254 -222 337 -319 30 -36 57 -67 60 -70 21 -21 87 -110 137
-185 200 -299 331 -623 388 -955 9 -52 18 -106 20 -120 3 -14 8 -70 11 -125 3
-55 7 -110 9 -122 3 -21 0 -23 -90 -38 -46 -8 -185 -24 -255 -30 -41 -3 -95
-8 -120 -11 -139 -14 -595 -31 -913 -34 l-168 -1 -44 40 c-76 70 -129 90 -264
97 -48 2 -102 6 -121 9 -322 46 -573 237 -603 460 -3 21 -10 40 -15 44 -6 3
-50 6 -99 5 l-88 -1 -1 -39 c-3 -120 73 -282 187 -395 170 -169 409 -265 704
-284 109 -7 123 -10 157 -43 56 -52 60 -134 11 -193 -34 -40 -64 -50 -143 -50
-66 1 -80 2 -180 22 -427 85 -764 483 -785 927 -1 24 -6 47 -12 50 -9 6 -142
7 -187 3 -10 -1 -2 -119 14 -221 9 -54 56 -205 85 -272 6 -16 1 -18 -36 -19
-73 -2 -143 -13 -185 -29 -171 -65 -294 -190 -350 -357 -33 -97 -37 -230 -9
-307 35 -102 118 -196 210 -242 65 -31 84 -36 175 -40 160 -7 315 87 384 231
27 59 36 93 40 165 11 188 -168 325 -346 264 -90 -30 -161 -116 -173 -209 l-5
-40 95 0 c95 0 96 0 120 31 22 29 35 33 77 25 4 0 14 -13 22 -28 11 -23 11
-36 1 -75 -58 -228 -384 -209 -414 24 -24 187 141 373 339 382 199 9 370 -149
375 -348 7 -314 -181 -611 -474 -748 -307 -144 -769 -70 -1095 174 -280 210
-464 522 -511 868 -6 49 -7 312 -1 345 2 11 7 51 11 90 4 38 8 72 10 75 2 3 6
26 10 50 10 75 64 267 103 369 159 418 444 781 812 1034 373 256 785 382 1258
386 l82 1 0 156 0 157 88 -6 c48 -4 121 -11 162 -17z"/>
<path d="M3460 3729 c-90 -14 -112 -20 -176 -45 -289 -116 -470 -403 -451
-714 14 -225 133 -429 324 -556 62 -41 180 -90 240 -100 21 -3 41 -8 45 -10
10 -6 178 -6 208 0 95 20 136 33 218 72 76 37 108 60 176 127 78 77 94 98 143
187 84 151 101 372 42 550 -93 283 -352 480 -649 493 -41 1 -95 0 -120 -4z
m225 -216 c142 -42 260 -143 327 -282 40 -82 42 -90 45 -192 3 -119 -10 -178
-58 -270 -52 -96 -160 -192 -263 -232 -69 -26 -79 -28 -172 -32 -389 -19 -653
402 -471 750 17 33 61 89 97 125 102 103 219 150 365 148 44 0 103 -7 130 -15z"/>
<path d="M3728 3290 c-149 -47 -202 -222 -102 -339 93 -108 274 -88 341 38 71
134 -16 295 -166 306 -25 2 -58 0 -73 -5z"/>
</g>
</svg>
