<?xml version="1.0" encoding="utf-8"?>
<!-- Generator: Adobe Illustrator 21.1.0, SVG Export Plug-In . SVG Version: 6.00 Build 0)  -->
<svg version="1.1" id="Layer_1" xmlns="http://www.w3.org/2000/svg" xmlns:xlink="http://www.w3.org/1999/xlink" x="0px" y="0px"
	 viewBox="0 0 2388 418.6" style="enable-background:new 0 0 2388 418.6;" xml:space="preserve">
<style type="text/css">
	.st0{fill:#264653;}
	.st1{enable-background:new    ;}
</style>
<title>Artboard 2 copy 6</title>
<g id="Layer_4">
	<g id="_Group_">
		<path id="_Compound_Path_" class="st0" d="M427.6,82C377.9,32.1,310.3,4.1,239.9,4.3h-9.8v31.2C104.5,40.7,5.4,144,5.5,269.7
			c0,79.8,64.6,144.6,144.5,144.6c0.1,0,0.1,0,0.2,0c55-0.1,99.5-44.6,99.6-99.6c0-0.6,0-1.1,0-1.7c17.4,9.5,36.9,14.5,56.7,14.6
			c18.6,0,33.7-15.1,33.7-33.7c0-0.2,0-0.4,0-0.7c40.5-0.2,78.1-1.6,107.1-4c15.7-1.3,28.2-2.8,37-4.5c7.9-1.5,21.1-4.1,21.1-15
			C505.5,199.2,477.5,131.7,427.6,82z M333.4,273.6c-6.4-8.5-16.4-13.5-27-13.5c-20.4,0-39.4-5.6-53.5-15.8
			c-13.2-9.5-20.4-21.9-20.4-34.8h-19.6c0,19.4,10.1,37.4,28.6,50.6c17.5,12.6,40.5,19.5,65,19.5c7.8,0,14.1,6.3,14.1,14.1
			s-6.3,14.1-14.1,14.1c-54.3,0-98.4-44-98.4-98.3c0,0,0-0.1,0-0.1h-19.6c0,17.5,3.8,34.7,11.3,50.5c-1.6-0.1-3.3-0.2-5-0.2
			c-30.3,0-54.9,24.5-55,54.9c0,22.5,18.2,40.6,40.7,40.6s40.6-18.2,40.6-40.6c0.3-14.1-11-25.8-25.1-26.1s-25.8,11-26.1,25.1
			c0,0.3,0,0.7,0,1h19.6c0-3.3,2.7-6,6-6s6,2.7,6,6c0,11.6-9.4,21.1-21.1,21.1c-11.6,0-21.1-9.4-21.1-21.1c0,0,0,0,0,0
			c0.1-19.6,16-35.4,35.6-35.3c9.6,0,18.7,3.9,25.3,10.8c6.4,6.5,9.9,15.3,9.9,24.5c0,44.2-35.8,80-80,80c-69-0.1-124.9-56-125-125
			c0-118.4,96.4-214.8,214.8-214.8h9.8V24.1c129.2,5.1,233.1,110.5,235.9,240.3C470.4,268.5,414.9,273.4,333.4,273.6z"/>
	</g>
	<path id="_Compound_Path_2" class="st0" d="M352.8,93.1c-39,0-70.6,31.6-70.6,70.6s31.6,70.6,70.6,70.6s70.6-31.6,70.6-70.6l0,0
		C423.4,124.7,391.8,93.1,352.8,93.1z M352.8,214.6c-28.1,0-50.9-22.8-50.9-50.9s22.8-50.9,50.9-50.9s50.9,22.8,50.9,50.9v0
		C403.7,191.8,380.9,214.6,352.8,214.6z"/>
	<path id="_Path_" class="st0" d="M396.6,156.6c0,11.3-9.2,20.5-20.6,20.5c-11.3,0-20.5-9.2-20.5-20.6c0-11.3,9.2-20.5,20.6-20.5
		C387.4,136,396.6,145.2,396.6,156.6C396.6,156.6,396.6,156.6,396.6,156.6z"/>
	<g class="st1">
		<path class="st0" d="M655.1,112.2h38.8c18.3,0,32.8,6.9,43.4,20.7c10.6,13.8,15.9,39.8,15.9,77.9c0,36.8-4.6,62.7-13.9,77.8
			c-9.3,15.1-25.9,22.7-50,22.7h-34.1V112.2z M682,132.6v158.4c11.3,0,19.8-2.1,25.6-6.3c5.8-4.2,10.2-11.9,13-23.3
			c2.9-11.4,4.3-28.4,4.3-51.1c0-29-2.7-49.2-8-60.6c-5.4-11.5-15.8-17.2-31.3-17.2H682z"/>
	</g>
	<g class="st1">
		<path class="st0" d="M864.8,112.2L826,226.4v84.8h-26.9v-83.6l-37.8-115.5H788l24.8,89.7l0.6-0.3l25.1-89.4H864.8z"/>
	</g>
	<g class="st1">
		<path class="st0" d="M985.1,311.2H964l-50.8-136.6l-0.6,0.1v136.6h-24.1V112.2h21.4l50.9,136.6l0.6,0.1V112.2h23.6V311.2z"/>
	</g>
	<g class="st1">
		<path class="st0" d="M1123.5,311.2h-25.9l-7.3-39.4h-42.1l-7.4,39.4h-25.6l43-199.1h22L1123.5,311.2z M1086.8,251.7l-17.5-94.4
			h-0.6l-16.5,94.4H1086.8z"/>
		<path class="st0" d="M1288.8,311.2h-24.8l-10.1-127.3h-0.6l-27.1,127.3h-16.7l-25.7-127.3h-0.8l-10.5,127.3h-25.1l19.5-199.1h23.2
			l27.7,139.5h0.6l28.3-139.5h23.2L1288.8,311.2z"/>
		<path class="st0" d="M1322.1,112.2h26.9v199.1h-26.9V112.2z"/>
		<path class="st0" d="M1473.8,307.8c-8,3.9-16,5.8-24.1,5.8c-16,0-29.9-6.2-41.6-18.6c-11.7-12.4-17.6-38.3-17.6-77.7
			c0-42.7,5.9-71.5,17.6-86.3c11.7-14.8,25.9-22.2,42.6-22.2c6.3,0,14,1,23.1,3.1v24.4c-6-2.4-11.7-3.6-17-3.6
			c-10.4,0-19.3,5.3-26.7,15.9c-7.4,10.6-11.1,31.5-11.1,62.6c0,18.6,0.8,33.1,2.4,43.6c1.6,10.5,5.3,18.8,11.2,25
			c5.8,6.2,13.2,9.3,22,9.3c5.2,0,11.6-1.6,19.2-4.8V307.8z"/>
		<path class="st0" d="M1649,307.8c-8,3.9-16,5.8-24.1,5.8c-16,0-29.9-6.2-41.6-18.6c-11.7-12.4-17.6-38.3-17.6-77.7
			c0-42.7,5.9-71.5,17.6-86.3c11.7-14.8,25.9-22.2,42.6-22.2c6.3,0,14,1,23.1,3.1v24.4c-6-2.4-11.7-3.6-17-3.6
			c-10.4,0-19.3,5.3-26.7,15.9c-7.4,10.6-11.1,31.5-11.1,62.6c0,18.6,0.8,33.1,2.4,43.6c1.6,10.5,5.3,18.8,11.2,25
			c5.8,6.2,13.2,9.3,22,9.3c5.2,0,11.6-1.6,19.2-4.8V307.8z"/>
		<path class="st0" d="M1687.4,112.2h26.9v199.1h-26.9V112.2z"/>
		<path class="st0" d="M1832.8,134.8h-30.5v176.4h-26.9V134.8h-30.3v-22.7h87.7V134.8z"/>
		<path class="st0" d="M1950.9,112.2l-38.8,114.2v84.8h-26.9v-83.6l-37.8-115.5h26.6l24.8,89.7l0.6-0.3l25.1-89.4H1950.9z"/>
	</g>
</g>
</svg>
