<svg xmlns="http://www.w3.org/2000/svg" viewBox="0 0 2387.98 418.56"><defs><style>.cls-1,.cls-2{fill:#fff;}.cls-2{font-size:320px;font-family:TwCenMT-Condensed, Tw Cen MT Condensed;}.cls-3{letter-spacing:-0.04em;}.cls-4{letter-spacing:-0.01em;}</style></defs><title>Artboard 2 copy 5</title><g id="Layer_4" data-name="Layer 4"><g id="_Group_" data-name="&lt;Group&gt;"><path id="_Compound_Path_" data-name="&lt;Compound Path&gt;" class="cls-1" d="M427.57,82.24A263.66,263.66,0,0,0,239.88,4.57h-9.8V35.76A234.24,234.24,0,0,0,5.5,269.94,144.54,144.54,0,0,0,150.12,414.56,99.68,99.68,0,0,0,249.68,315c0-.57,0-1.13,0-1.68a118.33,118.33,0,0,0,56.74,14.57,33.75,33.75,0,0,0,33.73-33.72c0-.23,0-.44,0-.67,40.47-.24,78.15-1.65,107.14-4,15.74-1.29,28.17-2.82,37-4.54,7.88-1.54,21.07-4.1,21.07-15A263.67,263.67,0,0,0,427.57,82.24ZM333.35,273.94a33.69,33.69,0,0,0-27-13.49c-20.35,0-39.36-5.62-53.52-15.83-13.19-9.51-20.45-21.85-20.45-34.76H212.82c0,19.38,10.15,37.37,28.59,50.65,17.47,12.6,40.54,19.53,65,19.53a14.12,14.12,0,1,1,0,28.25,98.38,98.38,0,0,1-98.43-98.43H188.36a118,118,0,0,0,11.31,50.52c-1.65-.15-3.31-.24-5-.24a55,55,0,0,0-55,54.85,40.65,40.65,0,0,0,81.3,0,25.6,25.6,0,1,0-51.19,0H189.4a6,6,0,1,1,12,0,21.06,21.06,0,1,1-42.12,0,35.42,35.42,0,0,1,60.9-24.45,35,35,0,0,1,9.9,24.45,80.06,80.06,0,0,1-80,80,125.17,125.17,0,0,1-125-125c0-118.44,96.36-214.79,214.79-214.79h9.8V24.34c129.23,5.1,233.15,110.46,235.92,240.27C470.43,268.77,414.88,273.72,333.35,273.94Z"/></g><path id="_Compound_Path_2" data-name="&lt;Compound Path&gt;" class="cls-1" d="M352.8,93.39A70.62,70.62,0,1,0,423.42,164,70.7,70.7,0,0,0,352.8,93.39Zm0,121.54A50.92,50.92,0,1,1,403.72,164,51,51,0,0,1,352.8,214.92Z"/><path id="_Path_" data-name="&lt;Path&gt;" class="cls-1" d="M396.6,156.86a20.55,20.55,0,1,1-20.55-20.55A20.55,20.55,0,0,1,396.6,156.86Z"/><text class="cls-2" transform="translate(632.13 311.51)"><tspan class="cls-3">D</tspan><tspan x="120" y="0">Y</tspan><tspan class="cls-4" x="236.88" y="0">N</tspan><tspan x="367.5" y="0">AMIC CITY</tspan></text></g></svg>